<svg width="19" height="19" viewBox="0 0 19 19" fill="none" xmlns="http://www.w3.org/2000/svg">
<g clip-path="url(#clip0_3_350)">
<g clip-path="url(#clip1_3_350)">
<path fill-rule="evenodd" clip-rule="evenodd" d="M7.68945 16.7885V18.6124L7.24863 18.2562C6.05385 17.2592 4.93967 16.1694 3.91648 14.9969C1.64961 12.3929 0.5 10.0553 0.5 8.04949V7.85068C0.5 3.88446 3.72516 0.657715 7.68945 0.657715C11.6537 0.657715 14.8789 3.88446 14.8789 7.85068V8.04949C14.8789 8.21793 14.8701 8.38903 14.8536 8.56214L13.4477 7.27894C13.1598 4.35394 10.6873 2.06133 7.68945 2.06133C4.49874 2.06133 1.90273 4.65853 1.90273 7.85079V8.0496C1.90273 11.4392 6.26788 15.5426 7.68945 16.7886V16.7885ZM12.0031 15.7805H14.1072V13.675H12.0031V15.7805ZM7.68945 4.86824C8.27937 4.86797 8.85611 5.04265 9.34674 5.37019C9.83737 5.69773 10.2198 6.16341 10.4458 6.70834C10.6717 7.25327 10.731 7.85297 10.6161 8.43158C10.5012 9.01019 10.2172 9.54173 9.80019 9.95896C9.38316 10.3762 8.85176 10.6604 8.2732 10.7756C7.69465 10.8908 7.09492 10.8318 6.54988 10.6061C6.00485 10.3804 5.53898 9.9982 5.2112 9.50773C4.88342 9.01726 4.70846 8.4406 4.70845 7.85068C4.70917 7.06016 5.02342 6.3022 5.58227 5.74308C6.14112 5.18396 6.89893 4.86934 7.68945 4.86824ZM7.68945 6.27171C7.37713 6.27156 7.07177 6.36403 6.81201 6.53744C6.55225 6.71085 6.34975 6.9574 6.23012 7.2459C6.11049 7.53441 6.07911 7.85191 6.13995 8.15825C6.20079 8.46459 6.35111 8.74601 6.5719 8.96691C6.7927 9.18781 7.07404 9.33827 7.38035 9.39926C7.68666 9.46025 8.00418 9.42902 8.29275 9.30954C8.58131 9.19005 8.82796 8.98767 9.00149 8.72799C9.17503 8.46832 9.26765 8.16301 9.26765 7.85068C9.26729 7.43216 9.10092 7.03087 8.80505 6.73486C8.50919 6.43884 8.10798 6.27228 7.68945 6.27171ZM17.5546 14.8267L17.1602 14.4667V16.7199C17.1597 17.2242 16.9592 17.7078 16.6026 18.0645C16.2461 18.4212 15.7626 18.6219 15.2582 18.6226H10.817C10.3126 18.6219 9.82916 18.4212 9.47261 18.0645C9.11605 17.7078 8.91553 17.2242 8.91504 16.7199V14.4667L8.52065 14.8267L7.57527 13.79L13.0374 8.80419L18.5 13.79L17.5546 14.8267ZM15.7575 13.1863L13.0374 10.704L10.3179 13.1863V16.7199C10.3181 16.8523 10.3707 16.9792 10.4643 17.0728C10.5579 17.1664 10.6848 17.219 10.8172 17.2191H15.2582C15.3906 17.219 15.5175 17.1663 15.6111 17.0727C15.7047 16.9791 15.7573 16.8523 15.7575 16.7199V13.1863Z" fill="#1C1C1C"/>
</g>
</g>
<defs>
<clipPath id="clip0_3_350">
<rect width="18" height="18" fill="white" transform="translate(0.5 0.640137)"/>
</clipPath>
<clipPath id="clip1_3_350">
<rect width="18" height="18" fill="white" transform="translate(0.5 0.640137)"/>
</clipPath>
</defs>
</svg>
