<svg width="45" height="46" viewBox="0 0 45 46" fill="none" xmlns="http://www.w3.org/2000/svg">
<rect y="0.140137" width="45" height="45" rx="22.5" fill="#FFB852"/>
<g clip-path="url(#clip0_3_349)">
<g clip-path="url(#clip1_3_349)">
<path fill-rule="evenodd" clip-rule="evenodd" d="M20.6895 29.7885V31.6124L20.2486 31.2562C19.0538 30.2592 17.9397 29.1694 16.9165 27.9969C14.6496 25.3929 13.5 23.0553 13.5 21.0495V20.8507C13.5 16.8845 16.7252 13.6577 20.6895 13.6577C24.6537 13.6577 27.8789 16.8845 27.8789 20.8507V21.0495C27.8789 21.2179 27.8701 21.389 27.8536 21.5621L26.4477 20.2789C26.1598 17.3539 23.6873 15.0613 20.6895 15.0613C17.4987 15.0613 14.9027 17.6585 14.9027 20.8508V21.0496C14.9027 24.4392 19.2679 28.5426 20.6895 29.7886V29.7885ZM25.0031 28.7805H27.1072V26.675H25.0031V28.7805ZM20.6895 17.8682C21.2794 17.868 21.8561 18.0426 22.3467 18.3702C22.8374 18.6977 23.2198 19.1634 23.4458 19.7083C23.6717 20.2533 23.731 20.853 23.6161 21.4316C23.5012 22.0102 23.2172 22.5417 22.8002 22.959C22.3832 23.3762 21.8518 23.6604 21.2732 23.7756C20.6946 23.8908 20.0949 23.8318 19.5499 23.6061C19.0048 23.3804 18.539 22.9982 18.2112 22.5077C17.8834 22.0173 17.7085 21.4406 17.7084 20.8507C17.7092 20.0602 18.0234 19.3022 18.5823 18.7431C19.1411 18.184 19.8989 17.8693 20.6895 17.8682ZM20.6895 19.2717C20.3771 19.2716 20.0718 19.364 19.812 19.5374C19.5522 19.7108 19.3497 19.9574 19.2301 20.2459C19.1105 20.5344 19.0791 20.8519 19.14 21.1583C19.2008 21.4646 19.3511 21.746 19.5719 21.9669C19.7927 22.1878 20.074 22.3383 20.3804 22.3993C20.6867 22.4602 21.0042 22.429 21.2927 22.3095C21.5813 22.1901 21.828 21.9877 22.0015 21.728C22.175 21.4683 22.2677 21.163 22.2677 20.8507C22.2673 20.4322 22.1009 20.0309 21.8051 19.7349C21.5092 19.4388 21.108 19.2723 20.6895 19.2717ZM30.5546 27.8267L30.1602 27.4667V29.7199C30.1597 30.2242 29.9592 30.7078 29.6026 31.0645C29.2461 31.4212 28.7626 31.6219 28.2582 31.6226H23.817C23.3126 31.6219 22.8292 31.4212 22.4726 31.0645C22.116 30.7078 21.9155 30.2242 21.915 29.7199V27.4667L21.5207 27.8267L20.5753 26.79L26.0374 21.8042L31.5 26.79L30.5546 27.8267ZM28.7575 26.1863L26.0374 23.704L23.3179 26.1863V29.7199C23.3181 29.8523 23.3707 29.9792 23.4643 30.0728C23.5579 30.1664 23.6848 30.219 23.8172 30.2191H28.2582C28.3906 30.219 28.5175 30.1663 28.6111 30.0727C28.7047 29.9791 28.7573 29.8523 28.7575 29.7199V26.1863Z" fill="#1C1C1C"/>
</g>
</g>
<defs>
<clipPath id="clip0_3_349">
<rect width="18" height="18" fill="white" transform="translate(13.5 13.6401)"/>
</clipPath>
<clipPath id="clip1_3_349">
<rect width="18" height="18" fill="white" transform="translate(13.5 13.6401)"/>
</clipPath>
</defs>
</svg>
