<svg width="248" height="121" viewBox="0 0 248 121" fill="none" xmlns="http://www.w3.org/2000/svg">
<g clip-path="url(#clip0_3_117)">
<g clip-path="url(#clip1_3_117)">
<path d="M248 1.49854H0V118.641H248V1.49854Z" fill="white"/>
<path fill-rule="evenodd" clip-rule="evenodd" d="M207.429 71.2397H193.76L180.025 53.6552V71.2397H169.466V30.65H180.025V47.3763L192.897 30.65H205.891L189.785 49.8592L207.429 71.2397ZM158.638 71.354C153.841 71.3908 149.186 69.7312 145.495 66.6683C140.568 62.6858 138.103 57.4858 138.099 51.0683C138.099 44.6443 140.565 39.4376 145.495 35.4483C149.216 32.3749 153.904 30.7153 158.73 30.7626C161.849 30.8521 164.926 31.5147 167.805 32.7174V44.758C166.996 43.7238 166.014 42.8381 164.901 42.1409C163.15 41.0699 161.135 40.5076 159.082 40.5169C156.6 40.4736 154.183 41.3091 152.258 42.8757C149.81 44.8715 148.586 47.6024 148.586 51.0683C148.586 54.5232 149.81 57.247 152.258 59.2397C154.183 60.8064 156.6 61.6419 159.082 61.5986C160.765 61.613 162.428 61.2376 163.941 60.5018C165.455 59.766 166.777 58.6897 167.805 57.3574V69.398C164.901 70.6244 161.79 71.2882 158.638 71.354ZM126.66 71.2397C126.66 70.4769 126.489 69.7238 126.158 69.0363C125.828 68.3487 125.347 67.7443 124.751 67.2677L133.734 51.7414L145.029 71.2397H126.66ZM116.392 71.2397H98.0229L109.318 51.7414L118.301 67.2677C117.705 67.7443 117.224 68.3487 116.894 69.0363C116.563 69.7238 116.392 70.4769 116.392 71.2397ZM73.1086 30.65H83.6675V62.4786H96.3629V71.2392H73.1086V30.65ZM57.4783 71.2397H40.5714V30.65H56.2537C63.8983 30.65 67.7223 34.1809 67.7257 41.2426C67.7891 43.097 67.3596 44.9351 66.4811 46.5694C65.6958 47.8557 64.5918 48.9175 63.276 49.6523C66.4914 50.3243 68.68 51.6277 69.8623 53.5415C70.9466 55.4121 71.4955 57.5449 71.4492 59.7066C71.4492 62.7352 70.5886 65.2094 68.8663 67.1026C66.3772 69.8645 62.5811 71.2435 57.4783 71.2397ZM55.4212 38.9769C54.6492 38.7587 53.8481 38.661 53.0463 38.6872H51.1269V46.6523H53.0463C54.8612 46.6523 56.1577 46.2077 56.9566 45.318C57.5909 44.5758 57.9272 43.6248 57.9006 42.6489C57.9034 40.8077 57.0737 39.5769 55.424 38.9769H55.4212ZM57.2497 54.8757C55.9349 54.7218 54.6109 54.6597 53.2874 54.69H51.1297V63.2129H53.464C56.1497 63.2129 58.0275 62.8923 59.096 62.2717C59.6672 61.948 60.1373 61.4721 60.454 60.8971C60.7708 60.322 60.9218 59.6704 60.8903 59.0146C60.8903 56.6557 59.6768 55.2761 57.2497 54.8757ZM207.417 75.6575H40.5714V73.4534H207.417V75.6575ZM45.7029 84.5014C45.4439 84.6636 45.1602 84.7823 44.8629 84.8529C44.4921 84.9366 44.1126 84.975 43.7326 84.9672H41.2017V77.9746H43.6183C44.0399 77.9608 44.4617 77.9955 44.8754 78.078C45.2519 78.1618 45.604 78.3316 45.904 78.574C46.2746 78.9001 46.5595 79.3121 46.7337 79.774C47.0625 80.7676 47.0914 81.8361 46.8166 82.846C46.7164 83.2118 46.5551 83.558 46.3394 83.87C46.1661 84.1156 45.9515 84.3293 45.7052 84.5014H45.7029ZM45.6823 79.7329C45.4879 79.3737 45.1769 79.0915 44.8006 78.9329C44.413 78.8234 44.0102 78.7782 43.608 78.7992H42.1372V84.1466H43.6309C43.998 84.159 44.365 84.1172 44.72 84.0226C44.9537 83.9472 45.1691 83.824 45.3526 83.6609C45.5866 83.4062 45.7605 83.1021 45.8612 82.7712C45.9948 82.3323 46.0577 81.8749 46.0474 81.4163C46.0797 80.8328 45.9544 80.2513 45.6846 79.7329H45.6823ZM69.4657 77.9746V84.9672H68.532V77.9746H69.4657ZM92.1806 82.846L91.4132 84.9672H90.428L93.1246 77.9746H94.1412L96.9937 84.9672H95.9355L95.1269 82.846H92.1829H92.1806ZM94.1097 80.1569C93.8812 79.5672 93.716 79.0815 93.6017 78.6986C93.5105 79.1562 93.3823 79.6057 93.2183 80.0426L92.4503 82.0997H94.836L94.1097 80.1569ZM117.81 84.9672V77.9746H119.201L120.858 82.9294C121.013 83.3866 121.127 83.7363 121.201 83.9637C121.273 83.7047 121.398 83.3321 121.574 82.846L123.265 77.9746H124.499V84.9672H123.607V79.1226L121.563 84.9672H120.723L118.701 79.0089V84.9672H117.809H117.81ZM149.165 85.0912C148.542 85.0984 147.929 84.9338 147.394 84.6152C146.883 84.3032 146.472 83.851 146.211 83.3123C145.943 82.7688 145.804 82.1701 145.807 81.5637C145.751 80.5681 146.09 79.5906 146.75 78.8432C147.061 78.5188 147.438 78.2636 147.854 78.0943C148.27 77.9249 148.718 77.8452 149.167 77.8603C149.783 77.8508 150.39 78.012 150.92 78.326C151.435 78.6274 151.85 79.0736 152.113 79.6089C152.383 80.2021 152.521 80.847 152.518 81.4989C152.514 82.1508 152.369 82.7941 152.092 83.3843C151.823 83.9228 151.396 84.3665 150.869 84.6563C150.348 84.9438 149.762 85.0935 149.167 85.0912H149.165ZM151.562 81.4809C151.57 80.9697 151.471 80.4625 151.271 79.9917C151.088 79.5895 150.792 79.2484 150.421 79.0089C149.962 78.731 149.424 78.6127 148.892 78.6725C148.359 78.7322 147.861 78.9666 147.475 79.3392C147.212 79.6466 147.014 80.004 146.893 80.3898C146.772 80.7756 146.73 81.1819 146.77 81.5843C146.73 82.3104 146.976 83.0231 147.455 83.57C147.678 83.7999 147.944 83.9825 148.238 84.1069C148.533 84.2313 148.849 84.2949 149.169 84.294C149.489 84.2931 149.805 84.2277 150.098 84.1016C150.392 83.9755 150.657 83.7914 150.878 83.5603C151.367 82.982 151.613 82.2366 151.564 81.4809H151.562ZM179.328 77.9746V84.9672H178.374L174.691 79.4849V84.9672H173.799V77.9746H174.754L178.436 83.4666V77.9746H179.328ZM205.478 84.5014C205.224 84.665 204.943 84.7839 204.649 84.8529C204.278 84.9362 203.898 84.9746 203.518 84.9672H200.986V77.9746H203.403C203.821 77.9607 204.239 77.9954 204.649 78.078C205.025 78.1586 205.376 78.3287 205.672 78.574C206.051 78.8919 206.338 79.3066 206.501 79.774C206.697 80.3069 206.792 80.8719 206.781 81.4397C206.79 81.915 206.728 82.389 206.598 82.846C206.498 83.2123 206.335 83.5587 206.118 83.87C205.945 84.1176 205.729 84.3315 205.48 84.5014H205.478ZM205.466 79.7329C205.269 79.3763 204.96 79.095 204.586 78.9329C204.198 78.8244 203.795 78.7793 203.392 78.7992H201.918V84.1466H203.415C203.781 84.1574 204.146 84.1156 204.501 84.0226C204.732 83.9493 204.945 83.8258 205.123 83.6609C205.36 83.4064 205.538 83.1025 205.643 82.7712C205.776 82.3322 205.838 81.8748 205.826 81.4163C205.861 80.8332 205.737 80.2516 205.469 79.7329H205.466ZM207.417 89.4986H40.5714V87.2849H207.417V89.4986Z" fill="#1C1C1C"/>
<path fill-rule="evenodd" clip-rule="evenodd" d="M121.526 71.2396L110.229 51.7414L109.771 50.9448L110.229 50.1488L121.526 30.6414L132.821 50.1511L133.278 50.9471L132.821 51.7436L121.526 71.2396Z" fill="#FF954A"/>
</g>
</g>
<defs>
<clipPath id="clip0_3_117">
<rect width="248" height="120.14" rx="6" fill="white"/>
</clipPath>
<clipPath id="clip1_3_117">
<rect width="248" height="117.143" fill="white" transform="translate(0 1.49854)"/>
</clipPath>
</defs>
</svg>
