<svg width="248" height="121" viewBox="0 0 248 121" fill="none" xmlns="http://www.w3.org/2000/svg">
<g clip-path="url(#clip0_3_124)">
<g clip-path="url(#clip1_3_124)">
<path d="M248 1.49854H0V118.641H248V1.49854Z" fill="white"/>
<path fill-rule="evenodd" clip-rule="evenodd" d="M206.097 86.6694C205.99 87.1155 205.744 87.5158 205.394 87.8123C204.902 88.1689 204.325 88.388 203.72 88.4471C204.429 88.4415 205.111 88.7175 205.617 89.2145C205.845 89.4896 205.992 89.8232 206.04 90.1774C206.121 90.9676 206.152 91.7622 206.131 92.5563V93.8534H201.989V93.1071C202.002 92.5524 201.973 91.9975 201.903 91.4471C201.87 91.1675 201.759 90.9027 201.583 90.6831C201.409 90.512 201.185 90.4028 200.943 90.3723C200.373 90.314 199.801 90.2921 199.229 90.3065H193.303V93.8534H189.097V79.9065H199.257C201.646 79.9134 203.074 79.9391 203.543 79.9837C204.029 80.0321 204.497 80.1946 204.909 80.458C205.416 80.7553 205.8 81.2258 205.989 81.7831C206.226 82.6458 206.326 83.5403 206.286 84.434C206.311 85.1839 206.247 85.9342 206.097 86.6694ZM201.943 84.0328C201.905 83.9264 201.847 83.8285 201.772 83.7447C201.696 83.6608 201.605 83.5927 201.503 83.5443C201.335 83.4712 201.155 83.4297 200.971 83.422C200.766 83.4083 200.177 83.398 199.206 83.3911H193.303V86.8231H199.217C200.251 86.802 200.863 86.7848 201.063 86.766C201.245 86.7552 201.421 86.7003 201.577 86.606C201.759 86.4828 201.894 86.3015 201.96 86.0917C202.043 85.7518 202.08 85.4021 202.069 85.0523C202.084 84.7078 202.042 84.3632 201.943 84.0328ZM155.771 54.49L128.526 54.6728V55.7671H128.709C128.532 56.0868 128.279 56.3571 127.971 56.5534H127.96C127.92 56.5603 127.88 56.5677 127.846 56.5757L127.823 56.5797C127.789 56.5877 127.749 56.5963 127.709 56.6043L127.691 56.6088C127.657 56.618 127.617 56.6271 127.577 56.6368L127.566 56.6408C127.526 56.6505 127.491 56.6608 127.451 56.6717L127.434 56.6774C127.394 56.6877 127.36 56.6986 127.32 56.7106L127.309 56.7151C127.269 56.7265 127.234 56.7391 127.194 56.7517L127.177 56.758C127.143 56.7694 127.109 56.782 127.074 56.7946L127.051 56.8031L126.949 56.8437L126.931 56.8494L126.829 56.8928L126.806 56.902L126.703 56.9477L126.691 56.9534C126.651 56.97 126.617 56.986 126.583 57.0031L126.566 57.0117C126.531 57.0281 126.497 57.0452 126.463 57.0631L126.451 57.0688C126.417 57.0871 126.383 57.1054 126.349 57.126L126.337 57.1328L126.234 57.19L126.223 57.1957C126.189 57.2155 126.154 57.2361 126.12 57.2574L126.109 57.2626L126.006 57.3271L126 57.3317L125.897 57.3997V57.4031C125.86 57.4254 125.823 57.4496 125.789 57.4757C125.754 57.5005 125.72 57.5256 125.686 57.5511C125.651 57.5751 125.623 57.5991 125.589 57.6248L125.577 57.6334C125.549 57.6574 125.52 57.6831 125.486 57.7077L125.48 57.7151C125.448 57.7393 125.418 57.7652 125.389 57.7928L125.377 57.8003C125.349 57.8258 125.32 57.8521 125.291 57.8791L125.28 57.8883C125.252 57.9128 125.225 57.9391 125.2 57.9671L125.183 57.9791C125.16 58.0054 125.131 58.0323 125.103 58.0597L125.091 58.07C125.069 58.0974 125.04 58.1271 125.011 58.1534L125 58.1643C124.977 58.1923 124.949 58.2214 124.926 58.2483L124.914 58.262C124.888 58.2888 124.863 58.3172 124.84 58.3471L124.829 58.3603C124.802 58.3882 124.777 58.4175 124.754 58.4483L124.743 58.4597L124.674 58.5488L124.663 58.5648L124.594 58.6534L124.583 58.6694C124.562 58.6938 124.543 58.7198 124.526 58.7471L110.44 44.5128L109.989 46.7414L108.223 44.9477L105.943 48.5345L107.194 48.8066C107.194 48.8066 105.714 49.9494 105.543 50.0025C105.371 50.0557 105.034 55.1666 105.034 55.1666L108.846 54.8403L112.034 58.9705L123.623 63.0454C123.634 63.0848 123.64 63.1248 123.651 63.1637L123.657 63.1934C123.663 63.2254 123.674 63.2563 123.68 63.2877L123.691 63.3328C123.697 63.3591 123.709 63.386 123.714 63.4123L123.726 63.458C123.731 63.4831 123.743 63.5088 123.749 63.5345L123.766 63.5843C123.771 63.6088 123.778 63.6328 123.789 63.6557L123.806 63.7043C123.811 63.7294 123.823 63.7551 123.829 63.7808L123.846 63.8237L123.88 63.9083C123.881 63.9201 123.885 63.9314 123.891 63.9414C123.904 63.9804 123.92 64.0186 123.937 64.0557L123.949 64.0831C123.96 64.1131 123.973 64.1422 123.989 64.17L124.006 64.2111L124.04 64.286L124.057 64.3254C124.068 64.3512 124.081 64.3759 124.097 64.3991L124.114 64.4403C124.126 64.4637 124.143 64.4871 124.154 64.5105L124.177 64.554L124.211 64.6191L124.234 64.6625C124.251 64.6872 124.267 64.7132 124.28 64.7403L124.297 64.7694L124.366 64.8757L124.371 64.8923C124.392 64.9193 124.411 64.9477 124.429 64.9774L124.457 65.0163C124.474 65.038 124.486 65.0591 124.503 65.0808L124.531 65.1208C124.543 65.1414 124.56 65.162 124.571 65.182L124.6 65.2197C124.617 65.239 124.632 65.2596 124.646 65.2814L124.68 65.322C124.697 65.3414 124.709 65.3608 124.726 65.3791C124.743 65.3974 124.743 65.4037 124.754 65.4151C124.777 65.44 124.798 65.4662 124.817 65.4934L124.834 65.5094C124.863 65.5408 124.886 65.5723 124.914 65.6031L124.931 65.622L125 65.6934L125.029 65.7248C125.046 65.7454 125.065 65.7645 125.086 65.782L125.12 65.818L125.171 65.8694L125.206 65.9037C125.223 65.9214 125.246 65.9385 125.263 65.9557L125.297 65.9888C125.32 66.0065 125.337 66.0248 125.36 66.046L125.389 66.0728C125.417 66.0963 125.446 66.1197 125.469 66.1426L125.486 66.1528C125.514 66.1791 125.549 66.2054 125.577 66.2311L125.606 66.2517C125.629 66.2707 125.651 66.2898 125.674 66.3088L125.714 66.3363C125.731 66.3517 125.754 66.3666 125.771 66.3814C125.789 66.3963 125.8 66.4014 125.817 66.4117C125.837 66.4273 125.858 66.4416 125.88 66.4546L125.914 66.4814L125.983 66.5243L126.023 66.5506C126.046 66.5648 126.063 66.5786 126.086 66.5928L126.126 66.6163L126.211 66.6677L126.229 66.6791C126.269 66.7003 126.303 66.7203 126.337 66.7408L126.366 66.754C126.394 66.7688 126.417 66.7837 126.446 66.7985C126.463 66.8054 126.474 66.8123 126.491 66.8191L126.56 66.8551L126.6 66.8757L126.669 66.9077L126.72 66.93C126.743 66.9403 126.766 66.9494 126.789 66.9591L126.834 66.9791L126.903 67.01C126.92 67.0157 126.931 67.0214 126.949 67.0266C126.977 67.0397 127.011 67.0523 127.046 67.0643L127.063 67.0706L127.183 67.1111L127.217 67.1243C127.246 67.1328 127.274 67.1425 127.297 67.1505L127.349 67.166L127.417 67.1871C127.44 67.1923 127.451 67.1968 127.474 67.202L127.543 67.2208L127.594 67.2351C127.617 67.2414 127.64 67.2471 127.669 67.2528L127.714 67.2643C127.743 67.2711 127.771 67.2768 127.8 67.2826L127.84 67.2911C127.88 67.2997 127.92 67.3083 127.966 67.3157L128.091 67.3363L128.131 67.342L128.217 67.3545L128.263 67.3603L128.349 67.3694L128.4 67.3745C128.423 67.3745 128.451 67.3797 128.48 67.3814L128.526 67.386C128.554 67.3883 128.583 67.39 128.611 67.3911H128.657L128.743 67.3945C128.76 67.3945 128.777 67.3945 128.789 67.3945H128.92H153.983C155.423 67.3798 156.8 66.7972 157.814 65.7733C158.827 64.7494 159.395 63.3669 159.395 61.9263C159.395 60.4856 158.827 59.1031 157.814 58.0792C156.8 57.0553 155.423 56.4727 153.983 56.458H148.526V55.7563H155.771V54.4791L161.491 62.7923L165.131 58.11L173.029 72.5271H57.6629L73.9142 46.2557L77.6343 51.83L94.2628 26.3877L104.657 42.106L110.149 37.5345L125.857 55.142L128.526 51.994M165.251 67.4534L164.811 61.114L162.817 64.9174L165.251 67.4534ZM73.6971 51.9894L64.4114 66.4403L75.9085 55.0328L73.6971 51.9894ZM94.0399 31.7128L86.52 59.09L101.783 43.1203L94.0399 31.7128ZM133.686 56.4666H128.92L128.709 55.7648H133.686V56.47V56.4666ZM127.971 56.5511C128.284 56.4952 128.602 56.4671 128.92 56.4671L127.971 56.5511ZM123.514 61.9351C123.51 60.7609 123.885 59.6167 124.583 58.6723L123.651 63.1671C123.559 62.7639 123.513 62.3516 123.514 61.938V61.9351ZM42.28 79.9037H57.5657V83.1825H46.4228V85.1986H57V88.2643H46.4228V90.5003H57.6457V93.8517H42.28V79.9065V79.9037ZM58.3829 79.9037H64.1314L68.3886 84.7974L72.6743 79.9037H78.4971L71.8571 86.8031L78.8172 93.8517H72.9028L68.3886 88.8363L63.9028 93.8517H57.8457L64.9028 86.8031L58.3829 79.9037ZM79.2857 81.8048C79.5019 81.3464 79.8287 80.9489 80.2367 80.648C80.6446 80.3472 81.1209 80.1525 81.6228 80.0814C82.7942 79.8204 85.1581 79.6892 88.7143 79.6877C90.4971 79.6877 91.7905 79.7283 92.5943 79.8094C93.2587 79.8576 93.911 80.0131 94.5257 80.27C95.1182 80.5352 95.5908 81.0114 95.8514 81.606C96.1474 82.44 96.2775 83.3238 96.2343 84.2077C96.2343 84.2648 96.2343 84.5008 96.2228 84.902H92.0229C92.0152 84.5899 91.9865 84.2787 91.9371 83.9705C91.9016 83.8204 91.822 83.6842 91.7085 83.5797C91.3338 83.3742 90.913 83.2675 90.4857 83.2694C89.8342 83.2031 88.84 83.1717 87.5143 83.1717C86.2 83.1717 85.2857 83.1997 84.7828 83.2591C84.4023 83.2751 84.0331 83.3935 83.7143 83.602C83.4273 83.8768 83.2419 84.2408 83.1885 84.6346C83.0019 86.1434 82.9982 87.6693 83.1772 89.1791C83.2254 89.5429 83.4065 89.8758 83.6857 90.114C84.022 90.3338 84.4103 90.4613 84.8114 90.4837C85.3257 90.5408 86.2399 90.5745 87.5428 90.5745C89.1542 90.5745 90.2285 90.5479 90.7657 90.4946C91.1563 90.4907 91.5359 90.3649 91.8514 90.1346C92.0971 89.898 92.2286 89.3397 92.2457 88.4677H96.4514C96.4743 89.1477 96.4857 89.5873 96.4857 89.7865C96.5269 90.6536 96.3645 91.5182 96.0114 92.3111C95.7935 92.6799 95.4964 92.9957 95.1416 93.2358C94.7869 93.4759 94.3834 93.6344 93.96 93.6997C92.2194 94.0051 90.4518 94.129 88.6857 94.0694C86.0571 94.0694 84.1847 94.0182 83.0685 93.9157C82.1992 93.8749 81.3448 93.6738 80.5485 93.3225C80.0726 93.0857 79.6786 92.7117 79.4171 92.2488C79.1314 91.6718 78.9661 91.0426 78.9314 90.3997C78.8685 89.7654 78.8381 88.6203 78.84 86.9643C78.84 85.3494 78.8705 84.1845 78.9314 83.4694C78.9601 82.9002 79.0797 82.3391 79.2857 81.8077V81.8048ZM110.48 79.9037L117.697 93.8517H112.926L111.737 91.4905H102.617L101.434 93.8517H96.6285L103.949 79.9037H110.48ZM110.269 88.4351L107.606 83.1546H106.771L104.109 88.4351H110.269ZM119.457 79.9037L124.491 90.3466H125.274L130.263 79.9037H134.851L128.12 93.8517H121.657L114.834 79.9037H119.457ZM145.84 79.9037L153.057 93.8517H148.286L147.103 91.4905H137.977L136.794 93.8517H131.989L139.309 79.9037H145.84ZM145.629 88.4351L142.966 83.1546H142.131L139.469 88.4351H145.629ZM150.863 79.9037H167.56V83.4614H161.423V93.8517H157.006V83.4643H150.863V79.9065V79.9037ZM171.811 79.9214C175.903 79.6235 180.011 79.6235 184.103 79.9214C185.714 80.1412 186.703 80.9155 187.069 82.2443C187.564 85.3136 187.564 88.4424 187.069 91.5117C186.703 92.8401 185.714 93.6142 184.103 93.834C182.074 94.0226 180.037 94.0972 178 94.0574C175.935 94.098 173.869 94.0234 171.811 93.834C170.2 93.6146 169.217 92.8403 168.851 91.5117C168.544 89.9585 168.419 88.3745 168.48 86.7923C168.422 85.2669 168.546 83.74 168.851 82.2443C169.217 80.918 170.2 80.1443 171.811 79.9243V79.9214ZM172.811 89.0911C172.893 89.4353 173.088 89.7422 173.364 89.9628C173.641 90.1834 173.983 90.3051 174.337 90.3083C175.551 90.4123 176.77 90.4531 177.989 90.4306C179.68 90.4306 180.806 90.4003 181.366 90.3397C181.809 90.317 182.237 90.1748 182.606 89.9283C182.866 89.7154 183.042 89.4174 183.103 89.0871C183.209 88.4836 183.253 87.8709 183.234 87.2585C183.248 86.5209 183.214 85.7831 183.131 85.05C183.097 84.6724 182.971 84.3087 182.766 83.99C182.631 83.8268 182.464 83.6931 182.275 83.5971C182.086 83.501 181.88 83.4448 181.669 83.4317C180.439 83.3328 179.205 83.2968 177.971 83.3237C176.628 83.2741 175.283 83.3323 173.949 83.498C173.713 83.5466 173.494 83.6568 173.314 83.8174C173.134 83.9779 173 84.1832 172.926 84.4123C172.717 85.3399 172.636 86.2918 172.686 87.2414C172.667 87.8616 172.709 88.4821 172.811 89.094V89.0911Z" fill="#1C1C1C"/>
<path fill-rule="evenodd" clip-rule="evenodd" d="M125.857 55.1448L128.526 51.9968V48.1797C128.524 47.9616 128.566 47.7453 128.648 47.5433C128.73 47.3413 128.852 47.1575 129.005 47.0025C129.158 46.8475 129.341 46.7243 129.542 46.64C129.743 46.5556 129.959 46.5118 130.177 46.5111H141.526V38.9231C141.524 38.4831 141.697 38.0605 142.007 37.7478C142.316 37.4351 142.737 37.258 143.177 37.2551H151.246C157.966 27.4265 165.097 27.4225 165.097 27.4225L165.451 27.5682L171.04 26.9311L171.086 27.3311L173.88 27.0117V26.0699H175.617L180.434 31.9397L179.663 32.2322L183.509 38.8374L183.217 38.9791L184.811 42.2168L185.149 42.2242L185.383 46.7385H187.331C187.331 46.7385 188.72 46.5871 189.269 49.8488C189.817 53.1105 190.211 57.7751 189.714 58.8288C189.217 59.8825 184.6 62.6414 183.314 62.8922C182.029 63.1431 178.2 63.3442 178.2 63.3442L178.697 62.2402L181.623 61.4402L178.943 48.9488L180.063 47.7854L174.583 35.6471L165.297 32.4431C163.124 32.9524 161.099 33.96 159.383 35.3865L157.954 39.0831L158.383 39.2545L155.771 46.0237V54.4951L128.526 54.6779M134.777 49.1351H131.074V49.6871H134.777V49.1351ZM134.777 50.2557H131.074V50.8077H134.777V50.2557ZM134.777 51.3762H131.074V51.9277H134.777V51.3762ZM134.777 52.4962H131.074V53.0414H134.777V52.4894V52.4962ZM140.023 49.1351H136.314V49.6871H140.023V49.1351ZM140.023 50.2557H136.314V50.8077H140.023V50.2557ZM140.023 51.3762H136.314V51.9277H140.023V51.3762ZM140.023 52.4962H136.314V53.0414H140.023V52.4894V52.4962ZM153.766 40.874C153.767 40.6883 153.731 40.5043 153.661 40.3324C153.591 40.1605 153.488 40.0041 153.357 39.8722C153.227 39.7402 153.072 39.6352 152.9 39.5633C152.729 39.4913 152.546 39.4538 152.36 39.4528H144.954C144.579 39.4546 144.219 39.6052 143.955 39.8716C143.69 40.138 143.542 40.4985 143.543 40.874V45.7402H149.766V52.6637H153.766V40.8699V40.874ZM155.771 39.3454V41.406L156.834 38.6442L157.269 38.8157L158.177 36.4648C157.282 37.3402 156.476 38.3029 155.771 39.3385V39.3454ZM173.88 27.6574L171.154 27.9682L171.2 28.3682L168.211 28.7111L173.88 31.0442V27.6597V27.6574ZM182.691 39.2374L182.366 39.3945L178.337 32.7442L177.8 32.9477L182.817 42.1785L184.137 42.2071L182.691 39.2374ZM158.297 61.9448C158.303 63.0162 157.882 64.0459 157.129 64.8078C156.376 65.5698 155.351 66.0017 154.28 66.0088H128.623C127.545 66.0088 126.511 65.5806 125.749 64.8185C124.987 64.0563 124.559 63.0226 124.559 61.9448C124.559 60.867 124.987 59.8333 125.749 59.0711C126.511 58.309 127.545 57.8808 128.623 57.8808H154.28C155.35 57.8879 156.374 58.3189 157.127 59.0794C157.88 59.8399 158.301 60.8678 158.297 61.938V61.9448Z" fill="#FF954A"/>
<path fill-rule="evenodd" clip-rule="evenodd" d="M134.777 49.1283H131.074V49.6803H134.777V49.1283ZM134.777 50.2489H131.074V50.8009H134.777V50.2489ZM134.777 51.3694H131.074V51.9209H134.777V51.3694ZM134.777 52.4894H131.074V53.0415H134.777V52.4894ZM140.023 49.1283H136.314V49.6803H140.023V49.1283ZM140.023 50.2489H136.314V50.8009H140.023V50.2489ZM140.023 51.3694H136.314V51.9209H140.023V51.3694ZM140.023 52.4894H136.314V53.0415H140.023V52.4894Z" fill="#1C1C1C"/>
</g>
</g>
<defs>
<clipPath id="clip0_3_124">
<rect width="248" height="120.14" rx="6" fill="white"/>
</clipPath>
<clipPath id="clip1_3_124">
<rect width="248" height="117.143" fill="white" transform="translate(0 1.49854)"/>
</clipPath>
</defs>
</svg>
