<svg width="181" height="18" viewBox="0 0 181 18" fill="none" xmlns="http://www.w3.org/2000/svg">
<path d="M16.7666 10.2617C16.7666 11.2425 16.5944 12.1447 16.25 12.9683C15.9131 13.7918 15.4451 14.5031 14.8462 15.1021C14.2472 15.6935 13.536 16.1577 12.7124 16.4946C11.8888 16.8315 10.9941 17 10.0283 17H2.14453C1.9349 17 1.74023 16.9626 1.56055 16.8877C1.38086 16.8128 1.22363 16.7118 1.08887 16.5845C0.961589 16.4497 0.860514 16.2925 0.785645 16.1128C0.710775 15.9331 0.67334 15.7385 0.67334 15.5288V2.3667C0.67334 2.16456 0.710775 1.97364 0.785645 1.79395C0.860514 1.61426 0.961589 1.45704 1.08887 1.32227C1.22363 1.18751 1.38086 1.08269 1.56055 1.00782C1.74023 0.932948 1.9349 0.895513 2.14453 0.895513H10.0283C10.9941 0.895513 11.8888 1.06397 12.7124 1.40088C13.536 1.7378 14.2472 2.20573 14.8462 2.80469C15.4451 3.39616 15.9131 4.10743 16.25 4.93848C16.5944 5.76205 16.7666 6.66049 16.7666 7.63379V10.2617ZM13.8467 7.63379C13.8467 7.06478 13.7531 6.54444 13.5659 6.07276C13.3862 5.60108 13.1279 5.20053 12.791 4.8711C12.4541 4.53419 12.0498 4.27588 11.5781 4.0962C11.1139 3.90902 10.5973 3.81544 10.0283 3.81544H3.59326V14.0801H10.0283C10.5973 14.0801 11.1139 13.9902 11.5781 13.8106C12.0498 13.6234 12.4541 13.3651 12.791 13.0357C13.1279 12.6987 13.3862 12.2982 13.5659 11.834C13.7531 11.3623 13.8467 10.8382 13.8467 10.2617V7.63379Z" fill="black"/>
<path d="M22.5728 17H19.6528V0.895513H22.5728V17Z" fill="black"/>
<path d="M41.4624 12.2607C41.4624 12.8372 41.3875 13.3576 41.2378 13.8218C41.0955 14.2785 40.9046 14.6828 40.665 15.0347C40.4255 15.3866 40.1447 15.686 39.8228 15.9331C39.5008 16.1802 39.1676 16.3823 38.8232 16.5396C38.4788 16.6968 38.127 16.8128 37.7676 16.8877C37.4157 16.9626 37.0825 17 36.7681 17H25.5039V14.0801H36.7681C37.3296 14.0801 37.7638 13.9154 38.0708 13.5859C38.3853 13.2565 38.5425 12.8148 38.5425 12.2607C38.5425 11.9912 38.5013 11.7441 38.4189 11.5195C38.3366 11.2949 38.2168 11.1003 38.0596 10.9356C37.9098 10.7708 37.7227 10.6436 37.498 10.5537C37.2809 10.4639 37.0376 10.419 36.7681 10.419H30.0522C29.5806 10.419 29.0715 10.3366 28.5249 10.1719C27.9784 9.99968 27.4692 9.72641 26.9976 9.35206C26.5334 8.97771 26.144 8.48731 25.8296 7.88087C25.5226 7.27442 25.3691 6.53321 25.3691 5.65723C25.3691 4.78126 25.5226 4.04379 25.8296 3.44483C26.144 2.83838 26.5334 2.34799 26.9976 1.97364C27.4692 1.5918 27.9784 1.31853 28.5249 1.15381C29.0715 0.981614 29.5806 0.895513 30.0522 0.895513H39.9912V3.81544H30.0522C29.4982 3.81544 29.064 3.98389 28.7495 4.32081C28.4425 4.65772 28.2891 5.1032 28.2891 5.65723C28.2891 6.21876 28.4425 6.66423 28.7495 6.99366C29.064 7.3156 29.4982 7.47657 30.0522 7.47657H36.7681H36.7905C37.105 7.48406 37.4382 7.52898 37.79 7.61133C38.1419 7.6862 38.4901 7.806 38.8345 7.97071C39.1864 8.13542 39.5195 8.34506 39.834 8.59962C40.1484 8.84669 40.4255 9.14616 40.665 9.49805C40.9121 9.84994 41.1068 10.2542 41.249 10.7109C41.3913 11.1676 41.4624 11.6843 41.4624 12.2607Z" fill="black"/>
<path d="M62.6318 17H59.6895V7.40919L54.5122 16.5171C54.3849 16.7492 54.2052 16.9251 53.9731 17.0449C53.7485 17.1647 53.5052 17.2246 53.2432 17.2246C52.9886 17.2246 52.749 17.1647 52.5244 17.0449C52.3073 16.9251 52.1351 16.7492 52.0078 16.5171L46.8081 7.40919V17H43.8882V2.1421C43.8882 1.80518 43.9855 1.5057 44.1802 1.24366C44.3823 0.981614 44.6444 0.80567 44.9663 0.715826C45.1235 0.678391 45.2808 0.667161 45.438 0.682135C45.5952 0.689622 45.745 0.723313 45.8872 0.783209C46.0369 0.835618 46.1717 0.914231 46.2915 1.01905C46.4113 1.11638 46.5124 1.23617 46.5947 1.37842L53.2432 12.9346L59.8916 1.37842C60.0638 1.09392 60.2996 0.89177 60.5991 0.771978C60.9061 0.652187 61.2243 0.633469 61.5537 0.715826C61.8682 0.80567 62.1265 0.981614 62.3286 1.24366C62.5308 1.5057 62.6318 1.80518 62.6318 2.1421V17Z" fill="black"/>
<path d="M81.8359 17H78.916V13.0469H68.6514V17H65.7314V8.94776C65.7314 7.7723 65.9336 6.69044 66.3379 5.70215C66.7422 4.71387 67.3037 3.8641 68.0225 3.15284C68.7412 2.44157 69.591 1.88754 70.5718 1.49073C71.5526 1.09392 72.6232 0.895513 73.7837 0.895513H80.3647C80.5669 0.895513 80.7578 0.932948 80.9375 1.00782C81.1172 1.08269 81.2744 1.18751 81.4092 1.32227C81.5439 1.45704 81.6488 1.61426 81.7236 1.79395C81.7985 1.97364 81.8359 2.16456 81.8359 2.3667V17ZM68.6514 10.127H78.916V3.81544H73.7837C73.6938 3.81544 73.5029 3.83041 73.2109 3.86036C72.9264 3.88282 72.5933 3.94646 72.2114 4.05128C71.8371 4.15609 71.4403 4.31706 71.021 4.53419C70.6017 4.75131 70.2161 5.05079 69.8643 5.43262C69.5124 5.81446 69.2204 6.29363 68.9883 6.87012C68.7637 7.43913 68.6514 8.13168 68.6514 8.94776V10.127Z" fill="black"/>
<path d="M101.332 15.7534C101.332 15.9631 101.291 16.1577 101.208 16.3374C101.134 16.5171 101.029 16.6743 100.894 16.8091C100.767 16.9364 100.613 17.0374 100.434 17.1123C100.254 17.1872 100.063 17.2246 99.8608 17.2246C99.6812 17.2246 99.4977 17.1909 99.3105 17.1235C99.1309 17.0562 98.9699 16.9476 98.8276 16.7979L88.1587 5.65723V17H85.2388V2.1421C85.2388 1.84262 85.3211 1.57309 85.4858 1.3335C85.658 1.08643 85.8752 0.903 86.1372 0.783209C86.4142 0.670904 86.6987 0.6447 86.9907 0.704595C87.2827 0.757004 87.5335 0.89177 87.7432 1.10889L98.4121 12.2383V0.895513H101.332V15.7534Z" fill="black"/>
<path d="M119.29 3.81544H112.854V17H109.935V3.81544H103.488V0.895513H119.29V3.81544Z" fill="black"/>
<path d="M136.236 17H122.917C122.707 17 122.513 16.9626 122.333 16.8877C122.153 16.8128 121.996 16.7118 121.861 16.5845C121.734 16.4497 121.633 16.2925 121.558 16.1128C121.483 15.9331 121.446 15.7385 121.446 15.5288V0.895513H124.366V14.0801H136.236V17Z" fill="black"/>
<path d="M141.324 17H138.404V0.895513H141.324V17Z" fill="black"/>
<path d="M160.831 15.7534C160.831 15.9631 160.79 16.1577 160.708 16.3374C160.633 16.5171 160.528 16.6743 160.393 16.8091C160.266 16.9364 160.112 17.0374 159.933 17.1123C159.753 17.1872 159.562 17.2246 159.36 17.2246C159.18 17.2246 158.997 17.1909 158.81 17.1235C158.63 17.0562 158.469 16.9476 158.327 16.7979L147.658 5.65723V17H144.738V2.1421C144.738 1.84262 144.82 1.57309 144.985 1.3335C145.157 1.08643 145.374 0.903 145.636 0.783209C145.913 0.670904 146.198 0.6447 146.49 0.704595C146.782 0.757004 147.033 0.89177 147.242 1.10889L157.911 12.2383V0.895513H160.831V15.7534Z" fill="black"/>
<path d="M180.125 15.5288C180.125 15.7385 180.088 15.9331 180.013 16.1128C179.938 16.2925 179.833 16.4497 179.698 16.5845C179.571 16.7118 179.417 16.8128 179.238 16.8877C179.058 16.9626 178.863 17 178.654 17H168.12C167.85 17 167.558 16.9701 167.244 16.9102C166.937 16.8428 166.63 16.7417 166.323 16.6069C166.023 16.4722 165.735 16.3 165.458 16.0903C165.181 15.8732 164.934 15.6149 164.717 15.3154C164.507 15.0085 164.339 14.6566 164.211 14.2598C164.084 13.8555 164.021 13.4025 164.021 12.9009V4.99463C164.021 4.7251 164.05 4.43685 164.11 4.12989C164.178 3.81544 164.279 3.50847 164.414 3.20899C164.548 2.90202 164.724 2.61003 164.941 2.33301C165.159 2.056 165.417 1.81267 165.716 1.60303C166.023 1.38591 166.375 1.21371 166.772 1.08643C167.169 0.959153 167.618 0.895513 168.12 0.895513H179.99V3.81544H168.12C167.738 3.81544 167.446 3.91651 167.244 4.11866C167.042 4.32081 166.94 4.62029 166.94 5.0171V12.9009C166.94 13.2752 167.042 13.5672 167.244 13.7769C167.453 13.979 167.745 14.0801 168.12 14.0801H177.205V10.419H169.434V7.47657H178.654C178.863 7.47657 179.058 7.51775 179.238 7.6001C179.417 7.67497 179.571 7.77979 179.698 7.91456C179.833 8.04932 179.938 8.20655 180.013 8.38624C180.088 8.55844 180.125 8.74561 180.125 8.94776V15.5288Z" fill="black"/>
</svg>
