<svg width="248" height="118" viewBox="0 0 248 118" fill="none" xmlns="http://www.w3.org/2000/svg">
<g clip-path="url(#clip0_3_112)">
<path d="M248 0.498535H0V117.641H248V0.498535Z" fill="white"/>
<path fill-rule="evenodd" clip-rule="evenodd" d="M194.286 97.8334V99.7363H187.851V86.4134H194.286V88.3168H190.211V91.838H193.449V93.7414H190.211V97.8334H194.286ZM163.269 72.1934L151.51 75.3243V67.7586L142.102 79.238L142.346 78.0837L144.53 76.1454C144.591 76.0746 144.635 75.9916 144.661 75.9021C144.686 75.8126 144.692 75.7187 144.679 75.6267C144.665 75.5346 144.632 75.4466 144.581 75.3685C144.53 75.2904 144.464 75.2241 144.385 75.174L138.135 69.6271L139.75 68.8014L142.102 63.5837L134.264 66.1917L126.518 59.3186L127.403 58.3654L125.967 58.8288L122.925 56.1289L123.287 55.7569L126.815 53.1477L134.165 49.7563L128.873 48.4517L133.87 44.7991L139.75 37.7551L136.222 39.3203L139.411 34.554L139.53 34.6243L141.147 32.4065L152.025 44.9294L152.465 44.0151C152.465 44.0151 160.991 55.6248 161.138 55.886C161.285 56.1471 162.608 62.1477 162.608 62.1477L164.225 61.1037L187.303 82.6277H186.331L163.269 72.1934ZM96.3789 37.454C96.4102 37.4182 96.4438 37.3844 96.4794 37.3528C96.7386 37.1324 97.0677 37.0113 97.408 37.0113C97.7482 37.0113 98.0774 37.1324 98.3366 37.3528C98.5195 37.5062 98.6459 37.7164 98.6956 37.9499C98.7453 38.1834 98.7155 38.4268 98.6109 38.6414C98.6505 38.4413 98.6358 38.2343 98.5684 38.0417C98.501 37.8492 98.3832 37.6782 98.2274 37.5465C97.9723 37.3302 97.6529 37.2039 97.3188 37.1872C96.9847 37.1705 96.6544 37.2642 96.3789 37.454ZM85.2274 53.4957C87.0395 48.238 89.9561 43.4291 93.7811 39.3923L94.4566 39.9917C90.6196 43.9231 87.4965 48.4927 85.2274 53.4957ZM92.9714 36.5614C92.9543 36.4343 92.9692 36.305 93.0149 36.1852C93.0606 36.0654 93.1357 35.959 93.2331 35.8757L95.6366 33.7431C95.7425 33.6525 95.8662 33.585 95.9997 33.545C96.1333 33.5049 96.2737 33.4932 96.412 33.5106C96.3422 33.5284 96.2776 33.5624 96.2234 33.61L93.0806 36.3969C93.0304 36.4412 92.9927 36.4979 92.9714 36.5614ZM98.6434 34.0163L102.154 37.1311C102.29 37.2453 102.381 37.4035 102.413 37.5784C102.444 37.7532 102.413 37.9334 102.325 38.0877C102.293 37.9115 102.202 37.7515 102.067 37.634L98.6257 34.5803C98.4425 34.4253 98.2103 34.3402 97.9703 34.3402C97.7303 34.3402 97.4981 34.4253 97.3149 34.5803L93.6006 37.8763C93.4579 37.9998 93.3646 38.1706 93.3377 38.3574C93.2518 38.2041 93.2219 38.0256 93.2532 37.8526C93.2845 37.6797 93.375 37.523 93.5091 37.4094L97.3326 34.0163C97.5156 33.862 97.7472 33.7774 97.9866 33.7774C98.2259 33.7774 98.4576 33.862 98.6406 34.0163H98.6434ZM115.494 26.6385C110.032 28.5725 104.899 31.3349 100.277 34.8288L99.6 34.23C104.371 30.7204 109.763 28.1447 115.491 26.6385H115.494ZM91.9063 61.8883H92.6411L101.902 53.9311L102.784 54.4528L107.236 50.13L110.649 53.1586L110.354 53.9311L111.119 53.5763L111.942 54.306L107.709 58.8883L103.594 60.4534V63.0626L107.709 61.4968L96.5337 70.3671H90.3623L88.0103 74.8025H92.4206L81.2463 77.4128L72.4269 78.978L60.9571 82.2557C60.8577 81.9014 60.7625 81.5458 60.6714 81.1888L67.3571 73.4991C67.3571 73.4991 78.3817 69.0643 83.6737 69.1946L91.9063 61.8883ZM64.068 86.4134V99.7363H61.8394V89.6494H61.7966L60.0823 99.7363H58.1029L56.3886 89.6494H56.3429V99.7363H54.2857V86.4134H57.6526L59.1537 95.9489H59.1966L60.6983 86.4134H64.0652H64.068ZM72.668 86.2231C73.6347 86.1572 74.5889 86.4713 75.3274 87.0985C75.6457 87.4236 75.8923 87.8118 76.0512 88.2381C76.2101 88.6644 76.2777 89.1193 76.2497 89.5734V96.5769C76.2777 97.0309 76.2101 97.4857 76.0512 97.9119C75.8923 98.3381 75.6458 98.7262 75.3274 99.0511C74.5575 99.6201 73.6254 99.9271 72.668 99.9271C71.7106 99.9271 70.7785 99.6201 70.0086 99.0511C69.6901 98.7263 69.4435 98.3382 69.2846 97.912C69.1257 97.4857 69.0581 97.0309 69.0863 96.5769V89.5734C69.0582 89.1193 69.1258 88.6644 69.2847 88.2381C69.4435 87.8117 69.6902 87.4235 70.0086 87.0985C70.7462 86.4717 71.6994 86.1576 72.6651 86.2231H72.668ZM71.4457 96.7105C71.4457 97.5867 71.8531 98.0249 72.668 98.0249C73.4829 98.0249 73.8903 97.5867 73.8903 96.7105V89.4397C73.8903 88.5635 73.4829 88.1254 72.668 88.1254C71.8531 88.1254 71.4457 88.5635 71.4457 89.4397V96.7105ZM83.5411 96.7294C83.5246 96.9068 83.5436 97.0856 83.597 97.2556C83.6503 97.4255 83.737 97.5831 83.852 97.7191C84.1067 97.9166 84.4198 98.0237 84.742 98.0237C85.0642 98.0237 85.3773 97.9166 85.632 97.7191C85.7471 97.5831 85.8339 97.4256 85.8873 97.2556C85.9408 97.0857 85.9599 96.9068 85.9434 96.7294V86.4134H88.2166V96.5769C88.2466 97.0307 88.1821 97.4858 88.0271 97.9134C87.8721 98.341 87.6299 98.7317 87.316 99.0608C86.5596 99.6234 85.6421 99.9272 84.6994 99.9272C83.7568 99.9272 82.8392 99.6234 82.0829 99.0608C81.7689 98.7318 81.5266 98.341 81.3715 97.9135C81.2164 97.4859 81.1518 97.0307 81.1817 96.5769V86.4134H83.5411V96.7271V96.7294ZM98.5749 94.3866H98.6177V86.4134H100.72V99.7363H98.2966L95.4651 90.0111H95.4223V99.7363H93.3206V86.4134H96.28L98.5749 94.3866ZM112.579 88.3151H110.113V99.7346H107.754V88.3168H105.287V86.4134H112.579V88.3168V88.3151ZM98.7537 82.6277H83.4554L90.0663 79.2363H98.8857L102.414 75.3226L115.349 76.6271L123.287 75.3226L113.732 80.0185L107.118 79.2363L98.7537 82.6277ZM122.166 86.4117L124.611 99.7346H122.251L121.823 97.0894V97.1271H119.142L118.713 99.7346H116.525L118.97 86.4117H122.166ZM121.543 95.3209L120.492 88.7357H120.449L119.421 95.3209H121.543ZM131.537 99.7363H129.177V86.4134H131.537V99.7363ZM116.122 58.0185L110.939 60.4534L114.903 56.9363L116.122 58.0185ZM118.786 60.382L119.418 60.9431L117.703 61.4968L118.786 60.382ZM107.118 72.4545L119.171 67.2368L122.485 63.6654L127.857 68.434L113.73 73.7591L107.118 72.4545ZM133.071 73.0591L130.049 73.7591L132.467 72.5231L133.071 73.0591ZM137.714 77.1843L124.162 82.6323H118.717L125.049 78.7186L133.906 73.8043L137.714 77.1843ZM114.477 43.0974L112.9 47.238L111.496 45.9923L114.477 43.0974ZM121.228 45.9123L121.595 46.2374L129.091 40.2374L129.855 40.7214L128.577 44.542L125.343 48.0643L121.462 54.8368L118.075 51.8305L119.169 49.4991L121.228 45.9123ZM143.263 76.1083L140.859 78.2414C140.727 78.3413 140.571 78.4062 140.407 78.4303C140.243 78.4543 140.075 78.4368 139.919 78.3791C139.994 78.3492 140.063 78.3071 140.123 78.2546L142.574 76.0791C142.935 75.7591 142.841 75.1517 142.365 74.7294L102.989 39.7866C103.052 39.7713 103.111 39.7409 103.16 39.698C103.227 39.6368 103.268 39.5518 103.274 39.4609L143.05 74.7586C143.53 75.178 143.625 75.7854 143.265 76.1054L143.263 76.1083ZM141.977 94.394H142.02V86.4134H144.122V99.7363H141.698L138.867 90.0111H138.825V99.7363H136.723V86.4134H139.682L141.977 94.394ZM157.611 95.9545H157.657L159.159 86.4191H162.526V99.742H160.297V89.6494H160.254L158.54 99.7363H156.567L154.853 89.6494H154.81V99.7363H152.753V86.4134H156.114L157.611 95.9545ZM170.071 99.742H167.714V86.4134H170.074V99.7363L170.071 99.742ZM180.515 94.394H180.558V86.4134H182.66V99.7363H180.237L177.406 90.0111H177.363V99.7363H175.263V86.4134H178.222L180.515 94.394Z" fill="#1C1C1C"/>
<path fill-rule="evenodd" clip-rule="evenodd" d="M102.346 36.6699C107.503 32.1336 113.341 28.4364 119.647 25.714C112.265 26.6886 105.249 29.5123 99.2503 33.9231L98.6788 33.4156C98.4956 33.2607 98.2634 33.1756 98.0234 33.1756C97.7834 33.1756 97.5512 33.2607 97.368 33.4156L97.344 33.4368C97.0265 33.1958 96.6364 33.0702 96.238 33.0805C95.8395 33.0909 95.4565 33.2367 95.152 33.4939L92.9469 35.4511C92.8069 35.5694 92.6933 35.7157 92.6135 35.8807C92.5336 36.0457 92.4894 36.2256 92.4836 36.4088C92.4778 36.592 92.5105 36.7743 92.5797 36.944C92.6489 37.1138 92.7529 37.267 92.8851 37.394L92.8617 37.4145C92.777 37.486 92.709 37.575 92.6623 37.6755C92.6156 37.776 92.5914 37.8854 92.5914 37.9962C92.5914 38.107 92.6156 38.2165 92.6623 38.3169C92.709 38.4174 92.777 38.5065 92.8617 38.5779L93.4331 39.0854C85.1326 47.9928 84.1829 57.1842 84.1829 57.1842C87.9046 50.2128 93.2303 44.7911 96.5286 41.8305L97.0126 42.2602C97.1961 42.4159 97.429 42.5014 97.6697 42.5014C97.9104 42.5014 98.1433 42.4159 98.3268 42.2602L98.3469 42.242L105.051 48.1917L102.293 50.87L101.543 50.4265L91.392 59.1494H90.6274L82.3537 66.4922C79.5402 66.7876 76.764 67.3683 74.068 68.2254C73.8895 66.6861 73.8001 65.1378 73.8 63.5882C73.7989 38.8414 96.4 17.0699 124.286 17.0699C152.171 17.0699 174.772 38.8414 174.772 63.5877C174.772 64.6825 174.727 65.7682 174.638 66.8448L164.735 57.6088C164.159 55.1259 164.057 54.9442 163.899 54.6642C163.804 54.4957 163.674 54.2642 155.051 42.5225L151.901 38.2322L151.257 39.5614L140.925 27.6665L138.639 30.8048L137.292 30.0082L129.708 37.2568L128.869 36.7248L121.706 42.4574L119.893 40.8488L117.94 40.7042L114.947 38.5797L109.314 44.05L102.81 38.2785L102.831 38.2602C102.915 38.1887 102.983 38.0996 103.03 37.9992C103.077 37.8987 103.101 37.7893 103.101 37.6785C103.101 37.5678 103.077 37.4583 103.03 37.3579C102.983 37.2574 102.915 37.1683 102.831 37.0968" fill="#FF954A"/>
</g>
<defs>
<clipPath id="clip0_3_112">
<rect width="248" height="117.143" fill="white" transform="translate(0 0.498535)"/>
</clipPath>
</defs>
</svg>
