<svg width="248" height="118" viewBox="0 0 248 118" fill="none" xmlns="http://www.w3.org/2000/svg">
<g clip-path="url(#clip0_3_105)">
<path d="M248 0.498535H0V117.641H248V0.498535Z" fill="white"/>
<path fill-rule="evenodd" clip-rule="evenodd" d="M218.057 50.1088V74.0516H210.199V50.1088H203.803V43.5465H224.571V50.1088H218.057ZM183.667 43.5465H200.882V50.1088H191.525V55.3974H200.369V61.9596H191.525V67.4454H200.882V74.0465H183.667V43.5465ZM91.0411 74.0488L83.5429 62.3568V74.0488H75.6823V43.5465H87.9223C91.476 43.5465 94.1206 44.6208 95.8577 46.8082C97.2384 48.5459 97.9651 50.7134 97.9109 52.9322C97.9109 55.6368 97.1217 57.7836 95.5423 59.4145C94.3692 60.521 92.9024 61.2665 91.3171 61.5619L100.793 74.0488H91.0411ZM88.5543 50.6259C87.8434 49.9099 86.6589 49.5911 85.0006 49.5911H83.5429V57.2276H85.0034C86.6617 57.2276 87.8463 56.8695 88.5571 56.1534C88.9311 55.7966 89.2287 55.3677 89.432 54.8925C89.6352 54.4173 89.7399 53.9059 89.7396 53.389C89.7394 52.8722 89.6342 52.3608 89.4304 51.8859C89.2267 51.4109 88.9286 50.9823 88.5543 50.6259ZM62.4166 68.7208H51.5594L49.4668 74.0488H41.1754L52.8234 43.5465H61.3909L72.7623 74.0488H64.3509L62.4166 68.7208ZM57.0451 52.9722L53.6886 62.7156H60.3217L57.0451 52.9722ZM38.2509 74.0488H30.396V50.1059H24V43.5465H44.8069V50.1088H38.2526V74.0516L38.2509 74.0488Z" fill="#1C1C1C"/>
<path fill-rule="evenodd" clip-rule="evenodd" d="M141.143 87.3465C134.427 87.3263 127.944 84.8809 122.888 80.4606C117.832 76.0403 114.542 69.9424 113.625 63.2893H100.833V55.4516H113.626C114.345 50.0017 116.669 44.8885 120.3 40.7617C123.932 36.6349 128.708 33.6806 134.023 32.2741C139.337 30.8676 144.95 31.0723 150.147 32.8623C155.345 34.6522 159.893 37.9466 163.215 42.3271L157.017 47.0196C154.668 43.9562 151.483 41.6376 147.846 40.3435C144.209 39.0493 140.275 38.8349 136.519 39.726C132.763 40.6171 129.345 42.5757 126.677 45.3657C124.009 48.1556 122.205 51.6578 121.482 55.4499C121.008 58.0402 121.008 60.695 121.482 63.2854C122.361 67.8615 124.806 71.9885 128.399 74.9567C131.991 77.9248 136.505 79.5485 141.165 79.5485C145.824 79.5485 150.338 77.9248 153.931 74.9567C157.523 71.9885 159.968 67.8615 160.847 63.2854H152.831C152.021 65.7398 150.457 67.8762 148.362 69.3906C146.268 70.9049 143.749 71.7201 141.164 71.7201C138.58 71.7201 136.061 70.9049 133.966 69.3906C131.872 67.8762 130.308 65.7398 129.498 63.2854C128.654 60.7416 128.654 57.9936 129.498 55.4499C130.3 52.9876 131.86 50.8421 133.956 49.3206C136.051 47.7992 138.575 46.9798 141.164 46.9798C143.754 46.9798 146.277 47.7992 148.373 49.3206C150.468 50.8421 152.029 52.9876 152.831 55.4499H180.743V63.2871H168.703C167.783 69.9469 164.487 76.0498 159.423 80.4711C154.358 84.8924 147.866 87.3342 141.143 87.3465ZM143.513 55.4516C142.8 55.0355 141.989 54.8162 141.163 54.8162C140.338 54.8162 139.527 55.0355 138.814 55.4516C138.15 55.8627 137.603 56.4365 137.223 57.1186C136.843 57.8007 136.643 58.5685 136.643 59.3494C136.643 60.1357 136.842 60.9093 137.221 61.5979C137.601 62.2865 138.149 62.8676 138.814 63.2871C139.527 63.7036 140.338 63.9231 141.163 63.9231C141.989 63.9231 142.8 63.7036 143.513 63.2871C144.178 62.8677 144.726 62.2865 145.106 61.5979C145.485 60.9093 145.684 60.1357 145.684 59.3494C145.684 58.5686 145.485 57.8008 145.105 57.1187C144.725 56.4366 144.177 55.8628 143.514 55.4516H143.513Z" fill="#FF954A"/>
</g>
<defs>
<clipPath id="clip0_3_105">
<rect width="248" height="117.143" fill="white" transform="translate(0 0.498535)"/>
</clipPath>
</defs>
</svg>
