<svg width="45" height="46" viewBox="0 0 45 46" fill="none" xmlns="http://www.w3.org/2000/svg">
<rect y="0.140137" width="45" height="45" rx="22.5" fill="#FFB852"/>
<g clip-path="url(#clip0_3_356)">
<g clip-path="url(#clip1_3_356)">
<path d="M24.7875 17.3901C25.5201 17.5331 26.1933 17.8913 26.7211 18.4191C27.2488 18.9468 27.6071 19.6201 27.75 20.3526M24.7875 14.3901C26.3095 14.5592 27.7287 15.2408 28.8122 16.3229C29.8957 17.405 30.579 18.8234 30.75 20.3451M30 26.3301V28.5801C30.0009 28.789 29.9581 28.9958 29.8744 29.1871C29.7907 29.3785 29.668 29.5503 29.5141 29.6915C29.3602 29.8327 29.1784 29.9402 28.9806 30.0072C28.7827 30.0741 28.573 30.0989 28.365 30.0801C26.0571 29.8294 23.8403 29.0407 21.8925 27.7776C20.0804 26.6261 18.544 25.0898 17.3925 23.2776C16.125 21.321 15.3362 19.0934 15.09 16.7751C15.0713 16.5677 15.0959 16.3587 15.1624 16.1614C15.2289 15.964 15.3357 15.7827 15.4761 15.6289C15.6165 15.4751 15.7874 15.3522 15.9779 15.268C16.1683 15.1839 16.3743 15.1403 16.5825 15.1401H18.8325C19.1965 15.1366 19.5494 15.2654 19.8253 15.5028C20.1013 15.7401 20.2816 16.0697 20.3325 16.4301C20.4275 17.1502 20.6036 17.8572 20.8575 18.5376C20.9584 18.8061 20.9803 19.0978 20.9204 19.3783C20.8606 19.6588 20.7217 19.9162 20.52 20.1201L19.5675 21.0726C20.6352 22.9503 22.1899 24.505 24.0675 25.5726L25.02 24.6201C25.2239 24.4185 25.4814 24.2795 25.7619 24.2197C26.0423 24.1599 26.3341 24.1817 26.6025 24.2826C27.283 24.5365 27.99 24.7127 28.71 24.8076C29.0743 24.859 29.4071 25.0425 29.6449 25.3233C29.8828 25.604 30.0091 25.9623 30 26.3301Z" fill="#46CC80" fill-opacity="0.01"/>
<path d="M24.7875 17.3901C25.5201 17.5331 26.1933 17.8913 26.7211 18.4191C27.2488 18.9468 27.6071 19.6201 27.75 20.3526M24.7875 14.3901C26.3095 14.5592 27.7287 15.2408 28.8122 16.3229C29.8957 17.405 30.579 18.8234 30.75 20.3451M30 26.3301V28.5801C30.0009 28.789 29.9581 28.9958 29.8744 29.1871C29.7907 29.3785 29.668 29.5503 29.5141 29.6915C29.3602 29.8327 29.1784 29.9402 28.9806 30.0072C28.7827 30.0741 28.573 30.0989 28.365 30.0801C26.0571 29.8294 23.8403 29.0407 21.8925 27.7776C20.0804 26.6261 18.544 25.0898 17.3925 23.2776C16.125 21.321 15.3362 19.0934 15.09 16.7751C15.0713 16.5677 15.0959 16.3587 15.1624 16.1614C15.2289 15.964 15.3357 15.7827 15.4761 15.6289C15.6165 15.4751 15.7874 15.3522 15.9779 15.268C16.1683 15.1839 16.3743 15.1403 16.5825 15.1401H18.8325C19.1965 15.1366 19.5494 15.2654 19.8253 15.5028C20.1013 15.7401 20.2816 16.0697 20.3325 16.4301C20.4275 17.1502 20.6036 17.8572 20.8575 18.5376C20.9584 18.8061 20.9803 19.0978 20.9204 19.3783C20.8606 19.6588 20.7217 19.9162 20.52 20.1201L19.5675 21.0726C20.6352 22.9503 22.1899 24.505 24.0675 25.5726L25.02 24.6201C25.2239 24.4185 25.4814 24.2795 25.7619 24.2197C26.0423 24.1599 26.3341 24.1817 26.6025 24.2826C27.283 24.5365 27.99 24.7127 28.71 24.8076C29.0743 24.859 29.4071 25.0425 29.6449 25.3233C29.8828 25.604 30.0091 25.9623 30 26.3301Z" stroke="#1C1C1C" stroke-width="1.5" stroke-linecap="round" stroke-linejoin="round"/>
</g>
</g>
<defs>
<clipPath id="clip0_3_356">
<rect width="18" height="18" fill="white" transform="translate(13.5 13.6401)"/>
</clipPath>
<clipPath id="clip1_3_356">
<rect width="18" height="18" fill="white" transform="translate(13.5 13.6401)"/>
</clipPath>
</defs>
</svg>
