<svg width="19" height="19" viewBox="0 0 19 19" fill="none" xmlns="http://www.w3.org/2000/svg">
<g clip-path="url(#clip0_3_357)">
<g clip-path="url(#clip1_3_357)">
<path d="M11.7875 4.39014C12.5201 4.53306 13.1933 4.89133 13.7211 5.41909C14.2488 5.94685 14.6071 6.62009 14.75 7.35264M11.7875 1.39014C13.3095 1.55921 14.7287 2.24077 15.8122 3.32289C16.8957 4.40502 17.579 5.82339 17.75 7.34514M17 13.3301V15.5801C17.0009 15.789 16.9581 15.9958 16.8744 16.1871C16.7907 16.3785 16.668 16.5503 16.5141 16.6915C16.3602 16.8327 16.1784 16.9402 15.9806 17.0072C15.7827 17.0741 15.573 17.0989 15.365 17.0801C13.0571 16.8294 10.8403 16.0407 8.89251 14.7776C7.08038 13.6261 5.54401 12.0898 4.39251 10.2776C3.12499 8.32104 2.33619 6.09338 2.09001 3.77514C2.07127 3.56774 2.09592 3.35871 2.16239 3.16136C2.22886 2.964 2.33569 2.78265 2.47609 2.62885C2.61648 2.47505 2.78736 2.35217 2.97785 2.26803C3.16834 2.18389 3.37427 2.14033 3.58251 2.14014H5.83251C6.19649 2.13655 6.54935 2.26545 6.82533 2.50279C7.10131 2.74013 7.28157 3.06972 7.33251 3.43014C7.42748 4.15019 7.6036 4.85718 7.85751 5.53764C7.95842 5.80608 7.98026 6.09782 7.92044 6.3783C7.86062 6.65877 7.72166 6.91622 7.52001 7.12014L6.56751 8.07264C7.63518 9.9503 9.18985 11.505 11.0675 12.5726L12.02 11.6201C12.2239 11.4185 12.4814 11.2795 12.7619 11.2197C13.0423 11.1599 13.3341 11.1817 13.6025 11.2826C14.283 11.5365 14.99 11.7127 15.71 11.8076C16.0743 11.859 16.4071 12.0425 16.6449 12.3233C16.8828 12.604 17.0091 12.9623 17 13.3301Z" fill="#46CC80" fill-opacity="0.01"/>
<path d="M11.7875 4.39014C12.5201 4.53306 13.1933 4.89133 13.7211 5.41909C14.2488 5.94685 14.6071 6.62009 14.75 7.35264M11.7875 1.39014C13.3095 1.55921 14.7287 2.24077 15.8122 3.32289C16.8957 4.40502 17.579 5.82339 17.75 7.34514M17 13.3301V15.5801C17.0009 15.789 16.9581 15.9958 16.8744 16.1871C16.7907 16.3785 16.668 16.5503 16.5141 16.6915C16.3602 16.8327 16.1784 16.9402 15.9806 17.0072C15.7827 17.0741 15.573 17.0989 15.365 17.0801C13.0571 16.8294 10.8403 16.0407 8.89251 14.7776C7.08038 13.6261 5.54401 12.0898 4.39251 10.2776C3.12499 8.32104 2.33619 6.09338 2.09001 3.77514C2.07127 3.56774 2.09592 3.35871 2.16239 3.16136C2.22886 2.964 2.33569 2.78265 2.47609 2.62885C2.61648 2.47505 2.78736 2.35217 2.97785 2.26803C3.16834 2.18389 3.37427 2.14033 3.58251 2.14014H5.83251C6.19649 2.13655 6.54935 2.26545 6.82533 2.50279C7.10131 2.74013 7.28157 3.06972 7.33251 3.43014C7.42748 4.15019 7.6036 4.85718 7.85751 5.53764C7.95842 5.80608 7.98026 6.09782 7.92044 6.3783C7.86062 6.65877 7.72166 6.91622 7.52001 7.12014L6.56751 8.07264C7.63518 9.9503 9.18985 11.505 11.0675 12.5726L12.02 11.6201C12.2239 11.4185 12.4814 11.2795 12.7619 11.2197C13.0423 11.1599 13.3341 11.1817 13.6025 11.2826C14.283 11.5365 14.99 11.7127 15.71 11.8076C16.0743 11.859 16.4071 12.0425 16.6449 12.3233C16.8828 12.604 17.0091 12.9623 17 13.3301Z" stroke="#1C1C1C" stroke-width="1.5" stroke-linecap="round" stroke-linejoin="round"/>
</g>
</g>
<defs>
<clipPath id="clip0_3_357">
<rect width="18" height="18" fill="white" transform="translate(0.5 0.640137)"/>
</clipPath>
<clipPath id="clip1_3_357">
<rect width="18" height="18" fill="white" transform="translate(0.5 0.640137)"/>
</clipPath>
</defs>
</svg>
